<svg id="Layer_1" data-name="Layer 1" xmlns="http://www.w3.org/2000/svg" viewBox="0 0 178.45 53.91"><defs><style>.cls-1{fill:#fff;}</style></defs><path class="cls-1" d="M57.87,27.34A14.46,14.46,0,0,1,53.42,37.8a7.17,7.17,0,0,0-5.73-2.68,7.9,7.9,0,0,0-11.33-8.61,10.25,10.25,0,0,0-5.62-6.38,14.52,14.52,0,0,1,27.13,7.21Z"/><path class="cls-1" d="M43.35,9.59A1.61,1.61,0,0,1,41.73,8V3.14a1.62,1.62,0,1,1,3.23,0V8A1.61,1.61,0,0,1,43.35,9.59Z"/><path class="cls-1" d="M67.55,29H62.71a1.62,1.62,0,0,1,0-3.23h4.84a1.62,1.62,0,0,1,0,3.23Z"/><path class="cls-1" d="M57,15.26a1.62,1.62,0,0,1-1.15-2.75l3.43-3.43a1.61,1.61,0,1,1,2.28,2.28l-3.42,3.43a1.64,1.64,0,0,1-1.14.47Z"/><path class="cls-1" d="M60.46,46.07a1.61,1.61,0,0,1-1.14-.48l-3.43-3.42a1.62,1.62,0,1,1,2.29-2.28l3.42,3.42a1.62,1.62,0,0,1-1.14,2.76Z"/><path class="cls-1" d="M29.65,15.26a1.64,1.64,0,0,1-1.14-.47l-3.42-3.43a1.61,1.61,0,1,1,2.28-2.28l3.43,3.43A1.62,1.62,0,0,1,29.65,15.26Z"/><path class="cls-1" d="M45.16,38.17a7.92,7.92,0,0,0-11.35-8.61,10.26,10.26,0,0,0-20,3.9,9.48,9.48,0,0,0,.74,18.93h30.8a7.11,7.11,0,1,0-.15-14.22Z"/><path class="cls-1" d="M80.1,39.78a1.44,1.44,0,0,1,.34,1,1.25,1.25,0,0,1-.45,1,1.72,1.72,0,0,1-1.17.38h-.49a4.49,4.49,0,0,1-2.46-.7,4.9,4.9,0,0,1-1.75-1.91,5.76,5.76,0,0,1-.63-2.71V30H72.23a1.29,1.29,0,0,1-.93-.33,1.06,1.06,0,0,1-.36-.82A1.13,1.13,0,0,1,71.3,28a1.29,1.29,0,0,1,.93-.33h1.26v-4a1.38,1.38,0,1,1,2.75,0v4h2.33a1.33,1.33,0,0,1,.94.33,1.12,1.12,0,0,1,.35.88,1.05,1.05,0,0,1-.35.82,1.33,1.33,0,0,1-.94.33H76.24v6.79a2.85,2.85,0,0,0,.6,1.84,1.87,1.87,0,0,0,1.49.74h.93A1.1,1.1,0,0,1,80.1,39.78Z"/><path class="cls-1" d="M94.75,27.81a5.81,5.81,0,0,1,2.36,2.4A7.87,7.87,0,0,1,98,34v6.76a1.35,1.35,0,0,1-1.4,1.4,1.35,1.35,0,0,1-1-.4,1.33,1.33,0,0,1-.4-1V34a4,4,0,0,0-4.36-4.5,4.77,4.77,0,0,0-2.11.47,3.74,3.74,0,0,0-1.48,1.26A3.11,3.11,0,0,0,86.68,33v7.74a1.36,1.36,0,0,1-.39,1,1.33,1.33,0,0,1-1,.4,1.35,1.35,0,0,1-1-.4,1.37,1.37,0,0,1-.4-1V22.09a1.35,1.35,0,0,1,.4-1,1.38,1.38,0,0,1,1-.39,1.36,1.36,0,0,1,1,.39,1.34,1.34,0,0,1,.39,1v6.73a6.15,6.15,0,0,1,2.08-1.36,7.31,7.31,0,0,1,6,.35Z"/><path class="cls-1" d="M105.52,41.28a6.81,6.81,0,0,1-2.69-2.71,8.49,8.49,0,0,1,0-7.88,6.85,6.85,0,0,1,2.69-2.7,7.84,7.84,0,0,1,3.92-1,7.72,7.72,0,0,1,3.89,1,7,7,0,0,1,2.69,2.7,8.49,8.49,0,0,1,0,7.88,7,7,0,0,1-2.68,2.71,8.41,8.41,0,0,1-7.84,0ZM112,39.12a4.59,4.59,0,0,0,1.73-1.82,5.63,5.63,0,0,0,.62-2.65,5.71,5.71,0,0,0-.62-2.67A4.52,4.52,0,0,0,112,30.14a5.12,5.12,0,0,0-5,0A4.61,4.61,0,0,0,105.19,32a5.6,5.6,0,0,0-.63,2.67,5.52,5.52,0,0,0,.63,2.65,4.69,4.69,0,0,0,1.74,1.82,5.12,5.12,0,0,0,5,0Z"/><path class="cls-1" d="M121.84,41.75a1.39,1.39,0,0,1-.39-1V28.52a1.38,1.38,0,0,1,.39-1,1.42,1.42,0,0,1,1-.38,1.32,1.32,0,0,1,1.4,1.4V40.74a1.39,1.39,0,0,1-.39,1,1.34,1.34,0,0,1-1,.39A1.39,1.39,0,0,1,121.84,41.75Z"/><path class="cls-1" d="M136.7,39.78a1.44,1.44,0,0,1,.35,1,1.23,1.23,0,0,1-.46,1,1.71,1.71,0,0,1-1.16.38h-.5a4.49,4.49,0,0,1-2.46-.7,4.8,4.8,0,0,1-1.74-1.91,5.76,5.76,0,0,1-.63-2.71V30h-1.27a1.32,1.32,0,0,1-.93-.33,1.06,1.06,0,0,1-.36-.82,1.13,1.13,0,0,1,.36-.88,1.32,1.32,0,0,1,.93-.33h1.27v-4a1.39,1.39,0,0,1,2.36-1,1.3,1.3,0,0,1,.38,1v4h2.34a1.32,1.32,0,0,1,.93.33,1.13,1.13,0,0,1,.36.88,1.06,1.06,0,0,1-.36.82,1.32,1.32,0,0,1-.93.33h-2.34v6.79a2.85,2.85,0,0,0,.61,1.84,1.84,1.84,0,0,0,1.48.74h.93A1.1,1.1,0,0,1,136.7,39.78Z"/><path class="cls-1" d="M141.82,24.14a1.73,1.73,0,0,1-.53-1.28,1.71,1.71,0,0,1,.53-1.27,1.81,1.81,0,0,1,3.09,1.27,1.83,1.83,0,0,1-1.81,1.82A1.74,1.74,0,0,1,141.82,24.14Z"/><path class="cls-1" d="M161.9,35.26a1.26,1.26,0,0,1-.91.35H150.56a4.84,4.84,0,0,0,1.74,3.1,5.6,5.6,0,0,0,5.25.88,5.31,5.31,0,0,0,1.47-.74,1.42,1.42,0,0,1,.9-.3,1.28,1.28,0,0,1,1.32,1.2,1,1,0,0,1-.44.83,7.57,7.57,0,0,1-2.32,1.21,8.46,8.46,0,0,1-6.69-.51A7,7,0,0,1,149,38.57a7.65,7.65,0,0,1-1-3.92A8.18,8.18,0,0,1,149,30.7,6.82,6.82,0,0,1,151.59,28a7.5,7.5,0,0,1,3.83-1,6.9,6.9,0,0,1,3.65.93,6.15,6.15,0,0,1,2.36,2.61,8.62,8.62,0,0,1,.83,3.85A1.13,1.13,0,0,1,161.9,35.26Zm-9.73-4.79a4.89,4.89,0,0,0-1.58,2.94h9.14a4.83,4.83,0,0,0-1.37-2.94,4,4,0,0,0-2.94-1.1A4.74,4.74,0,0,0,152.17,30.47Z"/><path class="cls-1" d="M173.07,39.78a1.49,1.49,0,0,1,.34,1,1.25,1.25,0,0,1-.45,1,1.75,1.75,0,0,1-1.17.38h-.5a4.48,4.48,0,0,1-2.45-.7,4.75,4.75,0,0,1-1.75-1.91,5.76,5.76,0,0,1-.63-2.71V30H165.2a1.33,1.33,0,0,1-.94-.33,1.09,1.09,0,0,1-.35-.82,1.16,1.16,0,0,1,.35-.88,1.33,1.33,0,0,1,.94-.33h1.26v-4a1.38,1.38,0,1,1,2.75,0v4h2.33a1.33,1.33,0,0,1,.94.33,1.16,1.16,0,0,1,.35.88,1.09,1.09,0,0,1-.35.82,1.33,1.33,0,0,1-.94.33h-2.33v6.79a2.85,2.85,0,0,0,.6,1.84,1.86,1.86,0,0,0,1.48.74h.94A1.1,1.1,0,0,1,173.07,39.78Z"/><polygon class="cls-1" points="146.52 31.87 142.92 31.87 144.83 27.12 140.51 27.12 138.6 34.93 141.67 34.93 140.31 42.14 146.52 31.87"/></svg>